<svg width="49" height="49" viewBox="0 0 49 49" fill="none" xmlns="http://www.w3.org/2000/svg">
<path d="M44.3335 21.9995C44.3335 30.6915 31.9488 41.8039 26.6708 46.145C25.3011 47.2715 23.3658 47.2715 21.9962 46.145C16.7182 41.8039 4.3335 30.6915 4.3335 21.9995C4.3335 10.9538 13.2878 1.99951 24.3335 1.99951C35.3792 1.99951 44.3335 10.9538 44.3335 21.9995Z" stroke="#016553" stroke-width="3"/>
<path d="M30.3335 21.9995C30.3335 25.3132 27.6472 27.9995 24.3335 27.9995C21.0198 27.9995 18.3335 25.3132 18.3335 21.9995C18.3335 18.6858 21.0198 15.9995 24.3335 15.9995C27.6472 15.9995 30.3335 18.6858 30.3335 21.9995Z" stroke="#016553" stroke-width="3"/>
</svg>
