<svg width="64" height="64" viewBox="0 0 64 64" fill="none" xmlns="http://www.w3.org/2000/svg">
<circle cx="32" cy="32" r="32" fill="#5BB98A"/>
<rect width="32" height="32" transform="translate(16 16)" fill="#5BB98A"/>
<path fill-rule="evenodd" clip-rule="evenodd" d="M38.6666 20C35.7211 20 33.3333 22.3878 33.3333 25.3333C33.3333 28.2789 35.7211 30.6667 38.6666 30.6667C41.6121 30.6667 43.9999 28.2789 43.9999 25.3333C43.9999 22.3878 41.6121 20 38.6666 20ZM38.6666 22.6667C40.1393 22.6667 41.3333 23.8606 41.3333 25.3333C41.3333 26.8061 40.1393 28 38.6666 28C37.1938 28 35.9999 26.8061 35.9999 25.3333C35.9999 23.8606 37.1938 22.6667 38.6666 22.6667ZM30.6666 24C30.6666 23.2636 30.0696 22.6667 29.3333 22.6667H25.3333L25.0982 22.6735C22.9985 22.7951 21.3333 24.5364 21.3333 26.6667V38.6667L21.34 38.9017C21.4617 41.0014 23.203 42.6667 25.3333 42.6667H37.3333L37.5683 42.6599C39.668 42.5382 41.3333 40.7969 41.3333 38.6667V34.6667L41.3243 34.5112C41.2473 33.8481 40.6837 33.3333 39.9999 33.3333C39.2635 33.3333 38.6666 33.9303 38.6666 34.6667V38.6667L38.6576 38.8222C38.5806 39.4853 38.017 40 37.3333 40H25.3333L25.1778 39.991C24.5146 39.914 23.9999 39.3504 23.9999 38.6667V26.6667L24.0089 26.5112C24.0859 25.8481 24.6495 25.3333 25.3333 25.3333H29.3333L29.4887 25.3244C30.1519 25.2473 30.6666 24.6838 30.6666 24Z" fill="white"/>
</svg>
