<svg width="80" height="80" viewBox="0 0 80 80" fill="none" xmlns="http://www.w3.org/2000/svg">
<path d="M3.33331 13.3333L3.01902 11.8666L1.83331 12.1207V13.3333H3.33331ZM50 76.6667V78.1667V76.6667ZM3.33331 76.6667H1.83331V78.1667H3.33331V76.6667ZM41.9364 5.06124L42.2507 6.52794L41.9364 5.06124ZM20 63.3333V61.8333H18.5V63.3333H20ZM33.3333 63.3333H34.8333V61.8333H33.3333V63.3333ZM33.3333 76.6667V78.1667H34.8333V76.6667H33.3333ZM20 76.6667H18.5V78.1667H20V76.6667ZM50 16.6667V15.1667C49.1715 15.1667 48.5 15.8382 48.5 16.6667H50ZM76.6666 16.6667H78.1666C78.1666 15.8382 77.4951 15.1667 76.6666 15.1667V16.6667ZM76.6666 76.6667V78.1667C77.4951 78.1667 78.1666 77.4951 78.1666 76.6667H76.6666ZM3.64761 14.8L42.2507 6.52794L41.6221 3.59453L3.01902 11.8666L3.64761 14.8ZM48.5 11.5799V76.6667H51.5V11.5799H48.5ZM50 75.1667H3.33331V78.1667H50V75.1667ZM4.83331 76.6667V13.3333H1.83331V76.6667H4.83331ZM42.2507 6.52794C45.467 5.83873 48.5 8.29059 48.5 11.5799H51.5C51.5 6.38065 46.706 2.50514 41.6221 3.59453L42.2507 6.52794ZM20 64.8333H33.3333V61.8333H20V64.8333ZM31.8333 63.3333V76.6667H34.8333V63.3333H31.8333ZM33.3333 75.1667H20V78.1667H33.3333V75.1667ZM21.5 76.6667V63.3333H18.5V76.6667H21.5ZM63.3333 48.1667H76.6666V45.1667H63.3333V48.1667ZM63.3333 34.8333H76.6666V31.8333H63.3333V34.8333ZM63.3333 61.5H76.6666V58.5H63.3333V61.5ZM50 18.1667H76.6666V15.1667H50V18.1667ZM75.1666 16.6667V76.6667H78.1666V16.6667H75.1666ZM76.6666 75.1667L50 75.1667L50 78.1667L76.6666 78.1667V75.1667ZM51.5 76.6667V16.6667H48.5V76.6667H51.5ZM61.8333 0V16.6667H64.8333V0H61.8333ZM13.3333 51.5H23.3333V48.5H13.3333V51.5ZM30 51.5H40V48.5H30V51.5ZM30 24.8333H40V21.8333H30V24.8333ZM13.3333 24.8333H23.3333V21.8333H13.3333V24.8333ZM13.3333 38.1667H23.3333V35.1667H13.3333V38.1667ZM30 38.1667H40V35.1667H30V38.1667Z" fill="#DDE1E6"/>
</svg>
