<svg width="64" height="64" viewBox="0 0 64 64" fill="none" xmlns="http://www.w3.org/2000/svg">
<circle cx="32" cy="32" r="32" fill="#5BB98A"/>
<rect width="32" height="32" transform="translate(16 16)" fill="#5BB98A"/>
<path fill-rule="evenodd" clip-rule="evenodd" d="M43.9999 37.3335C43.9999 35.1244 42.2091 33.3335 39.9999 33.3335L26.6666 33.3335C25.9302 33.3335 25.3333 33.9304 25.3333 34.6668C25.3333 35.4032 25.9302 36.0002 26.6666 36.0002L39.9999 36.0002C40.7363 36.0002 41.3333 36.5971 41.3333 37.3335C41.3333 38.0699 40.7363 38.6668 39.9999 38.6668L26.6666 38.6668C25.9302 38.6668 25.3333 39.2638 25.3333 40.0002C25.3333 40.7365 25.9302 41.3335 26.6666 41.3335L39.9999 41.3335C42.2091 41.3335 43.9999 39.5426 43.9999 37.3335Z" fill="white"/>
<path fill-rule="evenodd" clip-rule="evenodd" d="M35.9999 26.6665C35.9999 24.4574 34.2091 22.6665 31.9999 22.6665H26.6666C25.9302 22.6665 25.3333 23.2635 25.3333 23.9998C25.3333 24.7362 25.9302 25.3332 26.6666 25.3332L31.9999 25.3332C32.7363 25.3332 33.3333 25.9301 33.3333 26.6665C33.3333 27.4029 32.7363 27.9998 31.9999 27.9998L26.6666 27.9998C25.9302 27.9998 25.3333 28.5968 25.3333 29.3332C25.3333 30.0695 25.9302 30.6665 26.6666 30.6665L31.9999 30.6665C34.2091 30.6665 35.9999 28.8756 35.9999 26.6665Z" fill="white"/>
<path fill-rule="evenodd" clip-rule="evenodd" d="M21.3333 20C22.0697 20 22.6667 20.597 22.6667 21.3333V42.6667C22.6667 43.403 22.0697 44 21.3333 44C20.597 44 20 43.403 20 42.6667V21.3333C20 20.597 20.597 20 21.3333 20Z" fill="white"/>
</svg>
