<svg width="21" height="20" viewBox="0 0 21 20" fill="none" xmlns="http://www.w3.org/2000/svg">
<path d="M17.1339 13.317C17.8667 13.317 18.4607 13.911 18.4607 14.6438V16.634C18.4607 17.3668 17.8667 17.9608 17.1339 17.9608H3.86606C3.13329 17.9608 2.53928 17.3668 2.53928 16.634V14.6438C2.53928 13.911 3.1333 13.317 3.86606 13.317H17.1339Z" fill="#E1F296"/>
<path d="M10.5 2.03931C11.2328 2.03931 11.8268 2.63334 11.8268 3.36609V9.33663C11.8268 10.0694 11.2328 10.6634 10.5 10.6634H3.77533C3.04257 10.6634 2.44855 10.0694 2.44855 9.33663L2.44855 3.36609C2.44855 2.63332 3.04257 2.03931 3.77533 2.03931H10.5Z" fill="#E1F296"/>
<path d="M17.7558 2.03931C18.1222 2.03931 18.4192 2.33632 18.4192 2.7027V4.36118C18.4192 4.72756 18.1222 5.02457 17.7558 5.02457H15.1437C14.7774 5.02457 14.4803 4.72756 14.4803 4.36118V2.7027C14.4803 2.33632 14.7774 2.03931 15.1437 2.03931H17.7558Z" fill="#E1F296"/>
<path d="M17.7558 7.6781C18.1222 7.6781 18.4192 7.97511 18.4192 8.34149V9.99998C18.4192 10.3664 18.1222 10.6634 17.7558 10.6634H15.1437C14.7774 10.6634 14.4803 10.3664 14.4803 9.99998V8.34149C14.4803 7.97511 14.7774 7.6781 15.1437 7.6781H17.7558Z" fill="#E1F296"/>
<path d="M17.1339 13.317C17.8667 13.317 18.4607 13.911 18.4607 14.6438V16.634C18.4607 17.3668 17.8667 17.9608 17.1339 17.9608H3.86606C3.13329 17.9608 2.53928 17.3668 2.53928 16.634V14.6438C2.53928 13.911 3.1333 13.317 3.86606 13.317H17.1339Z" stroke="#016553" stroke-width="1.71" stroke-linecap="round" stroke-linejoin="round"/>
<path d="M10.5 2.03931C11.2328 2.03931 11.8268 2.63334 11.8268 3.36609V9.33663C11.8268 10.0694 11.2328 10.6634 10.5 10.6634H3.77533C3.04257 10.6634 2.44855 10.0694 2.44855 9.33663L2.44855 3.36609C2.44855 2.63332 3.04257 2.03931 3.77533 2.03931H10.5Z" stroke="#016553" stroke-width="1.71" stroke-linecap="round" stroke-linejoin="round"/>
<path d="M17.7558 2.03931C18.1222 2.03931 18.4192 2.33632 18.4192 2.7027V4.36118C18.4192 4.72756 18.1222 5.02457 17.7558 5.02457H15.1437C14.7774 5.02457 14.4803 4.72756 14.4803 4.36118V2.7027C14.4803 2.33632 14.7774 2.03931 15.1437 2.03931H17.7558Z" stroke="#016553" stroke-width="1.71" stroke-linecap="round" stroke-linejoin="round"/>
<path d="M17.7558 7.6781C18.1222 7.6781 18.4192 7.97511 18.4192 8.34149V9.99998C18.4192 10.3664 18.1222 10.6634 17.7558 10.6634H15.1437C14.7774 10.6634 14.4803 10.3664 14.4803 9.99998V8.34149C14.4803 7.97511 14.7774 7.6781 15.1437 7.6781H17.7558Z" stroke="#016553" stroke-width="1.71" stroke-linecap="round" stroke-linejoin="round"/>
</svg>
