<svg width="21" height="20" viewBox="0 0 48 48" fill="none" xmlns="http://www.w3.org/2000/svg">
<path d="M3.30688 31.5766V10.0557H38.3262V31.5766C38.1272 35.8209 29.1237 38.2939 20.8165 38.2939C12.5094 38.2939 3.50586 35.8209 3.30688 31.5766Z" fill="#E1F296"/>
<path d="M20.8165 16.805C30.4868 16.805 38.3262 13.7833 38.3262 10.0558C38.3262 6.32836 30.4868 3.30664 20.8165 3.30664C11.1462 3.30664 3.30688 6.32836 3.30688 10.0558C3.30688 13.7833 11.1462 16.805 20.8165 16.805Z" fill="white"/>
<path d="M20.8165 16.805C30.4868 16.805 38.3262 13.7833 38.3262 10.0558C38.3262 6.32836 30.4868 3.30664 20.8165 3.30664C11.1462 3.30664 3.30688 6.32836 3.30688 10.0558C3.30688 13.7833 11.1462 16.805 20.8165 16.805Z" stroke="#016553" stroke-width="3.43" stroke-linecap="round" stroke-linejoin="round"/>
<path d="M38.3262 16.0408V10.0557" stroke="#016553" stroke-width="3.43" stroke-linecap="round" stroke-linejoin="round"/>
<path d="M3.30688 10.0557V31.5766C3.30688 35.1422 10.4381 37.9437 19.4794 38.2939" stroke="#016553" stroke-width="3.43" stroke-linecap="round" stroke-linejoin="round"/>
<path d="M20.8165 27.4382C11.2658 27.5656 3.30688 24.5412 3.30688 20.8164" stroke="#016553" stroke-width="3.43" stroke-linecap="round" stroke-linejoin="round"/>
<path d="M27.1836 31.959H43.1014C44.0565 31.959 44.6932 32.5957 44.6932 33.5508V43.1015C44.6932 44.0566 44.0565 44.6933 43.1014 44.6933H27.1836C26.2285 44.6933 25.5918 44.0566 25.5918 43.1015V33.5508C25.5918 32.5957 26.2285 31.959 27.1836 31.959Z" fill="white"/>
<path d="M27.1836 31.959H43.1014C44.0565 31.959 44.6932 32.5957 44.6932 33.5508V43.1015C44.6932 44.0566 44.0565 44.6933 43.1014 44.6933H27.1836C26.2285 44.6933 25.5918 44.0566 25.5918 43.1015V33.5508C25.5918 32.5957 26.2285 31.959 27.1836 31.959Z" stroke="#016553" stroke-width="3.43" stroke-linecap="round" stroke-linejoin="round"/>
<path d="M28.7754 31.9589V28.7753C28.7754 25.2734 31.6406 22.4082 35.1425 22.4082C38.6445 22.4082 41.5097 25.2734 41.5097 28.7753V31.9589" stroke="#016553" stroke-width="3.43" stroke-linecap="round" stroke-linejoin="round"/>
</svg>
