<svg width="21" height="20" viewBox="0 0 21 20" fill="none" xmlns="http://www.w3.org/2000/svg">
<path d="M10.5 8.00984C15.263 8.00984 19.1241 6.52478 19.1241 4.69287V15.3072C19.1241 17.1381 15.2632 18.6241 10.5 18.6241C5.73683 18.6241 1.87589 17.1381 1.87589 15.3072V4.69287C1.87589 6.52478 5.73703 8.00984 10.5 8.00984Z" fill="#E1F296"/>
<path d="M10.5 8.00978C15.263 8.00978 19.1241 6.52473 19.1241 4.69282C19.1241 2.86091 15.263 1.37585 10.5 1.37585C5.73703 1.37585 1.87589 2.86091 1.87589 4.69282C1.87589 6.52473 5.73703 8.00978 10.5 8.00978Z" fill="white"/>
<path d="M10.5 8.00978C15.263 8.00978 19.1241 6.52473 19.1241 4.69282C19.1241 2.86091 15.263 1.37585 10.5 1.37585C5.73703 1.37585 1.87589 2.86091 1.87589 4.69282C1.87589 6.52473 5.73703 8.00978 10.5 8.00978Z" stroke="#016553" stroke-width="1.71" stroke-linecap="round" stroke-linejoin="round"/>
<path d="M1.87589 4.69287V15.3072C1.87589 17.1381 5.73683 18.6241 10.5 18.6241C15.2632 18.6241 19.1241 17.1381 19.1241 15.3072V4.69287" stroke="#016553" stroke-width="1.71" stroke-linecap="round" stroke-linejoin="round"/>
<path d="M19.1241 10C19.1241 11.831 15.2632 13.317 10.5 13.317C5.73683 13.317 1.87589 11.831 1.87589 10" stroke="#016553" stroke-width="1.71" stroke-linecap="round" stroke-linejoin="round"/>
</svg>
