<svg width="21" height="20" viewBox="0 0 21 20" fill="none" xmlns="http://www.w3.org/2000/svg">
<path d="M6.18793 8.00978V2.70264C6.18793 1.96988 6.78196 1.37585 7.51471 1.37585H13.4852C14.218 1.37585 14.812 1.96988 14.812 2.70264V8.00978C14.812 8.74254 14.218 9.33657 13.4852 9.33657H7.51471C6.78196 9.33657 6.18793 8.74254 6.18793 8.00978Z" fill="#E1F296"/>
<path d="M10.5 9.33655V14.6437" stroke="#016553" stroke-width="1.71" stroke-linecap="round" stroke-linejoin="round"/>
<path d="M3.86606 14.6437V13.3169C3.86606 12.5841 4.46009 11.9901 5.19284 11.9901H15.8071C16.5399 11.9901 17.1339 12.5841 17.1339 13.3169V14.6437" stroke="#016553" stroke-width="1.71" stroke-linecap="round" stroke-linejoin="round"/>
<path d="M1.87589 17.2972V15.9705C1.87589 15.2377 2.46991 14.6437 3.20267 14.6437H4.52946C5.26221 14.6437 5.85624 15.2377 5.85624 15.9705V17.2972C5.85624 18.03 5.26221 18.624 4.52946 18.624H3.20267C2.46991 18.624 1.87589 18.03 1.87589 17.2972Z" fill="#E1F296"/>
<path d="M8.50983 17.2972V15.9705C8.50983 15.2377 9.10386 14.6437 9.83661 14.6437H11.1634C11.8962 14.6437 12.4902 15.2377 12.4902 15.9705V17.2972C12.4902 18.03 11.8962 18.624 11.1634 18.624H9.83661C9.10386 18.624 8.50983 18.03 8.50983 17.2972Z" fill="#E1F296"/>
<path d="M15.1437 17.2972V15.9705C15.1437 15.2377 15.7377 14.6437 16.4705 14.6437H17.7973C18.5301 14.6437 19.1241 15.2377 19.1241 15.9705V17.2972C19.1241 18.03 18.5301 18.624 17.7973 18.624H16.4705C15.7377 18.624 15.1437 18.03 15.1437 17.2972Z" fill="#E1F296"/>
<path d="M6.18793 8.00978V2.70264C6.18793 1.96988 6.78196 1.37585 7.51471 1.37585H13.4852C14.218 1.37585 14.812 1.96988 14.812 2.70264V8.00978C14.812 8.74254 14.218 9.33657 13.4852 9.33657H7.51471C6.78196 9.33657 6.18793 8.74254 6.18793 8.00978Z" stroke="#016553" stroke-width="1.71" stroke-linecap="round" stroke-linejoin="round"/>
<path d="M1.87589 17.2972V15.9705C1.87589 15.2377 2.46991 14.6437 3.20267 14.6437H4.52946C5.26221 14.6437 5.85624 15.2377 5.85624 15.9705V17.2972C5.85624 18.03 5.26221 18.624 4.52946 18.624H3.20267C2.46991 18.624 1.87589 18.03 1.87589 17.2972Z" stroke="#016553" stroke-width="1.71" stroke-linecap="round" stroke-linejoin="round"/>
<path d="M8.50983 17.2972V15.9705C8.50983 15.2377 9.10386 14.6437 9.83661 14.6437H11.1634C11.8962 14.6437 12.4902 15.2377 12.4902 15.9705V17.2972C12.4902 18.03 11.8962 18.624 11.1634 18.624H9.83661C9.10386 18.624 8.50983 18.03 8.50983 17.2972Z" stroke="#016553" stroke-width="1.71" stroke-linecap="round" stroke-linejoin="round"/>
<path d="M15.1437 17.2972V15.9705C15.1437 15.2377 15.7377 14.6437 16.4705 14.6437H17.7973C18.5301 14.6437 19.1241 15.2377 19.1241 15.9705V17.2972C19.1241 18.03 18.5301 18.624 17.7973 18.624H16.4705C15.7377 18.624 15.1437 18.03 15.1437 17.2972Z" stroke="#016553" stroke-width="1.71" stroke-linecap="round" stroke-linejoin="round"/>
</svg>
