<svg width="21" height="20" viewBox="0 0 21 20" fill="none" xmlns="http://www.w3.org/2000/svg">
<path fill-rule="evenodd" clip-rule="evenodd" d="M13.81 18.9251C13.9601 19.0751 14.1769 19.1668 14.402 19.1668L14.3929 19.1576C14.6096 19.1576 14.8264 19.066 14.9849 18.916L14.9857 18.9168L17.4871 16.4168C17.5621 16.3335 17.6205 16.2418 17.6622 16.1418C17.7039 16.0335 17.7205 15.9335 17.7289 15.8251C17.7205 15.7085 17.7039 15.6085 17.6622 15.5085C17.6205 15.4001 17.5621 15.3085 17.4871 15.2335L14.9857 12.7335C14.6522 12.4001 14.1269 12.4001 13.8017 12.7335C13.4682 13.0585 13.4682 13.5835 13.8017 13.9168L14.8856 14.9918H11.0585C10.5916 14.9918 10.2247 15.3585 10.2247 15.8251C10.2247 16.2835 10.5916 16.6585 11.0585 16.6585H14.8856L13.8017 17.7335V17.7418C13.4765 18.0668 13.4765 18.6001 13.81 18.9251ZM5.23027 18.3335H8.98236V18.3251C9.44094 18.3251 9.81615 17.9501 9.81615 17.4918C9.81615 17.0251 9.44094 16.6585 8.98236 16.6585H5.23027C4.76335 16.6585 4.39647 16.2835 4.39647 15.8251V4.15847C4.39647 3.6918 4.76335 3.32513 5.23027 3.32513H10.2331V5.83333C10.2331 6.75 10.9751 7.5 11.9006 7.5H14.402V10.8326C14.402 11.291 14.7689 11.666 15.2358 11.666C15.6944 11.666 16.0696 11.291 16.0696 10.8326V6.66666V6.66597C16.0696 6.65626 16.0695 6.64658 16.0691 6.63691C16.0658 6.54125 16.0467 6.45011 16.0144 6.36586C15.9727 6.25539 15.9087 6.15516 15.8278 6.0743L11.6588 1.90763C11.5004 1.7493 11.2836 1.65763 11.0668 1.66597V1.66666C11.0616 1.66666 11.0565 1.66671 11.0513 1.6668H5.23027C3.84617 1.6668 2.72888 2.78347 2.72888 4.1668V15.8335C2.72888 17.2085 3.84617 18.3335 5.23027 18.3335ZM11.9006 4.50013V5.83333H13.2346L11.9006 4.50013Z" fill="#016553"/>
</svg>
