<svg width="64" height="64" viewBox="0 0 64 64" fill="none" xmlns="http://www.w3.org/2000/svg">
<circle cx="32" cy="32" r="32" fill="#5BB98A"/>
<rect width="32" height="32" transform="translate(16 16)" fill="#5BB98A"/>
<path fill-rule="evenodd" clip-rule="evenodd" d="M21.3333 20C22.0697 20 22.6667 20.597 22.6667 21.3333V38.6667C22.6667 40.1394 23.8606 41.3333 25.3333 41.3333H42.6667C43.403 41.3333 44 41.9303 44 42.6667C44 43.403 43.403 44 42.6667 44H25.3333C22.3878 44 20 41.6122 20 38.6667V21.3333C20 20.597 20.597 20 21.3333 20Z" fill="white"/>
<path fill-rule="evenodd" clip-rule="evenodd" d="M43.0883 20.0688C43.7869 20.3016 44.1645 21.0567 43.9316 21.7553L41.2961 29.662C40.3557 32.4829 36.7755 33.3281 34.6729 31.2255L32.7749 29.3275C32.074 28.6266 30.8806 28.9084 30.5672 29.8487L27.9316 37.7553C27.6988 38.4539 26.9437 38.8315 26.2451 38.5986C25.5465 38.3657 25.1689 37.6106 25.4018 36.9121L28.0373 29.0054C28.9777 26.1845 32.5579 25.3393 34.6605 27.4419L36.5585 29.3399C37.2594 30.0408 38.4528 29.759 38.7662 28.8187L41.4018 20.9121C41.6347 20.2135 42.3897 19.8359 43.0883 20.0688Z" fill="white"/>
</svg>
