<svg width="20" height="20" viewBox="0 0 20 20" fill="none" xmlns="http://www.w3.org/2000/svg">
<path fill-rule="evenodd" clip-rule="evenodd" d="M17.6726 2.3274C16.6568 1.3116 15.0099 1.3116 13.9941 2.3274L12.7442 3.57722C12.7442 3.57728 12.7441 3.57734 12.7441 3.5774C12.744 3.57745 12.744 3.57751 12.7439 3.57757L6.91074 9.41073L6.8384 9.49329C6.72764 9.63792 6.66667 9.81581 6.66667 9.99999V12.5L6.67227 12.5972C6.72041 13.0116 7.07264 13.3333 7.5 13.3333H10L10.1095 13.3261C10.2901 13.3022 10.459 13.2195 10.5893 13.0892L16.4226 7.25591L17.6726 6.00591L17.7853 5.88597C18.6869 4.86436 18.6493 3.30412 17.6726 2.3274ZM15.8333 5.48807L16.4941 4.8274C16.8329 4.48854 16.8571 3.95419 16.5667 3.58741L16.4941 3.50591C16.1552 3.16705 15.6209 3.14285 15.2541 3.4333L15.1726 3.50591L14.5118 4.16664L15.8333 5.48807ZM13.3333 5.34514L14.6546 6.66645L9.65417 11.6658H8.33333V10.345L13.3333 5.34514ZM7.5 4.99999C7.96024 4.99999 8.33333 5.37308 8.33333 5.83332C8.33333 6.26068 8.01163 6.61291 7.59718 6.66105L7.5 6.66665H5C4.57264 6.66665 4.22041 6.98835 4.17227 7.4028L4.16667 7.49999V15C4.16667 15.4273 4.48837 15.7796 4.90282 15.8277L5 15.8333H12.5C12.9274 15.8333 13.2796 15.5116 13.3277 15.0972L13.3333 15V12.5C13.3333 12.0397 13.7064 11.6667 14.1667 11.6667C14.594 11.6667 14.9463 11.9884 14.9944 12.4028L15 12.5V15C15 16.3314 13.9592 17.4197 12.6469 17.4957L12.5 17.5H5C3.6686 17.5 2.58028 16.4592 2.50424 15.1469L2.5 15V7.49999C2.5 6.16858 3.54077 5.08027 4.85311 5.00423L5 4.99999H7.5Z" fill="white"/>
</svg>
