<svg width="48" height="48" viewBox="0 0 48 48" fill="none" xmlns="http://www.w3.org/2000/svg">
<path d="M33.2497 3.8013L43.0816 4.89374C44.0113 4.99704 44.7318 5.72858 44.7013 6.6635C44.5762 10.5034 43.1026 20.7817 31.9439 31.9405C20.7852 43.0992 10.5053 44.5745 6.66453 44.7003C5.72944 44.731 4.99765 44.0104 4.89433 43.0806L3.80194 33.249C3.71387 32.4564 4.10514 31.6872 4.79764 31.2915L12.2329 27.044C13.0159 26.5967 14.0015 26.7287 14.6391 27.3664L17.7506 30.4779C18.2235 30.9507 18.9007 31.1523 19.526 30.9154C20.8744 30.4046 23.4186 29.1521 26.2856 26.285C29.1527 23.4179 30.4052 20.8738 30.916 19.5254C31.1529 18.9001 30.9514 18.2228 30.4785 17.75L27.3671 14.6385C26.7294 14.0008 26.5973 13.0153 27.0447 12.2322L31.2922 4.797C31.6878 4.1045 32.457 3.71323 33.2497 3.8013Z" stroke="#016553" stroke-width="3" stroke-linecap="round" stroke-linejoin="round"/>
</svg>
