<svg width="64" height="64" viewBox="0 0 64 64" fill="none" xmlns="http://www.w3.org/2000/svg">
<circle cx="32" cy="32" r="32" fill="#5BB98A"/>
<rect width="32" height="32" transform="translate(16 16)" fill="#5BB98A"/>
<path fill-rule="evenodd" clip-rule="evenodd" d="M32.0001 21.3332C26.109 21.3332 21.3334 26.1088 21.3334 31.9998C21.3334 37.8909 26.109 42.6665 32.0001 42.6665C37.8911 42.6665 42.6667 37.8909 42.6667 31.9998C42.6667 26.1088 37.8911 21.3332 32.0001 21.3332ZM18.6667 31.9998C18.6667 24.636 24.6363 18.6665 32.0001 18.6665C39.3639 18.6665 45.3334 24.636 45.3334 31.9998C45.3334 39.3636 39.3639 45.3332 32.0001 45.3332C24.6363 45.3332 18.6667 39.3636 18.6667 31.9998Z" fill="white"/>
<path fill-rule="evenodd" clip-rule="evenodd" d="M32 24C32.7364 24 33.3333 24.597 33.3333 25.3333V32C33.3333 32.3536 33.1929 32.6928 32.9428 32.9428L30.2761 35.6095C29.7554 36.1302 28.9112 36.1302 28.3905 35.6095C27.8698 35.0888 27.8698 34.2446 28.3905 33.7239L30.6667 31.4477V25.3333C30.6667 24.597 31.2636 24 32 24Z" fill="white"/>
</svg>
