<svg width="21" height="20" viewBox="0 0 21 20" fill="none" xmlns="http://www.w3.org/2000/svg">
<path d="M17.7973 17.2973C17.7973 17.6491 17.6575 17.9867 17.4087 18.2355C17.1599 18.4842 16.8224 18.6241 16.4705 18.6241H4.52945C4.17756 18.6241 3.84009 18.4842 3.59127 18.2355C3.34246 17.9867 3.20267 17.6491 3.20267 17.2973V2.70264C3.20267 2.35075 3.34246 2.01328 3.59127 1.76446C3.84009 1.51564 4.17756 1.37585 4.52945 1.37585H13.1536L17.7973 6.0196V17.2973Z" fill="#E1F296"/>
<path d="M17.7973 17.2973C17.7973 17.6491 17.6575 17.9867 17.4087 18.2355C17.1599 18.4842 16.8224 18.6241 16.4705 18.6241H4.52945C4.17756 18.6241 3.84009 18.4842 3.59127 18.2355C3.34246 17.9867 3.20267 17.6491 3.20267 17.2973V2.70264C3.20267 2.35075 3.34246 2.01328 3.59127 1.76446C3.84009 1.51564 4.17756 1.37585 4.52945 1.37585H13.1536L17.7973 6.0196V17.2973Z" stroke="#016553" stroke-width="1.71" stroke-linecap="round" stroke-linejoin="round"/>
<path d="M6.6492 5.55608C6.6492 6.39903 7.33253 7.08237 8.17548 7.08237C8.38859 7.08237 8.59148 7.0387 8.77573 6.95982C9.32027 6.72666 9.70178 6.18593 9.70178 5.55608C9.70178 4.71313 9.01843 4.02979 8.17548 4.02979C7.33253 4.02979 6.6492 4.71313 6.6492 5.55608Z" fill="white"/>
<path d="M5.85623 8.59359C6.09875 8.13231 6.43962 7.75106 6.84604 7.48651C7.25246 7.22196 7.71077 7.08301 8.17693 7.08301C8.64308 7.08301 9.10139 7.22196 9.50781 7.48651C9.91423 7.75106 10.2551 8.13231 10.4976 8.59359" fill="white"/>
<path d="M5.85623 8.59359C6.09875 8.13231 6.43962 7.75106 6.84604 7.48651C7.25246 7.22196 7.71077 7.08301 8.17693 7.08301C8.64308 7.08301 9.10139 7.22196 9.50781 7.48651C9.91423 7.75106 10.2551 8.13231 10.4976 8.59359" stroke="#016553" stroke-width="1.71" stroke-linecap="round" stroke-linejoin="round"/>
<path d="M6.6492 5.55608C6.6492 6.39903 7.33253 7.08237 8.17548 7.08237C8.38859 7.08237 8.59148 7.0387 8.77573 6.95982C9.32027 6.72666 9.70178 6.18593 9.70178 5.55608C9.70178 4.71313 9.01843 4.02979 8.17548 4.02979C7.33253 4.02979 6.6492 4.71313 6.6492 5.55608Z" stroke="#016553" stroke-width="1.71" stroke-linecap="round" stroke-linejoin="round"/>
<path d="M5.85623 11.9901H15.1437" stroke="#016553" stroke-width="1.71" stroke-linecap="round"/>
<path d="M5.85623 15.3071H11.1634" stroke="#016553" stroke-width="1.71" stroke-linecap="round"/>
</svg>
