<svg width="21" height="20" viewBox="0 0 21 20" fill="none" xmlns="http://www.w3.org/2000/svg">
<path d="M6.64306 5.98779L7.1207 4.75388C7.20145 4.54487 7.34347 4.36513 7.52814 4.23822C7.71281 4.11132 7.93152 4.04318 8.15559 4.04272H9.06709C9.29094 4.04344 9.50935 4.11171 9.69376 4.2386C9.87817 4.36548 10.02 4.54508 10.1007 4.75388L10.5783 5.98779L12.201 6.92185L13.5145 6.72151C13.7326 6.69205 13.9546 6.72802 14.1523 6.82487C14.35 6.92171 14.5145 7.07506 14.625 7.26549L15.0695 8.04431C15.1836 8.23811 15.2363 8.462 15.2204 8.68637C15.2045 8.91073 15.1209 9.12499 14.9806 9.30078L14.1686 10.3343V12.2011L15.0031 13.236C15.143 13.4118 15.2263 13.6258 15.2422 13.8498C15.2581 14.0739 15.2057 14.2975 15.092 14.4912L14.6476 15.27C14.5371 15.4608 14.3724 15.6144 14.1744 15.7112C13.9764 15.8081 13.7541 15.8439 13.5357 15.814L12.2235 15.6149L10.6009 16.5477L10.1232 17.7816C10.0425 17.9906 9.90044 18.1703 9.71577 18.2972C9.5311 18.4242 9.31239 18.4923 9.08832 18.4927H8.15559C7.93152 18.4923 7.71281 18.4242 7.52814 18.2972C7.34347 18.1703 7.20145 17.9906 7.1207 17.7816L6.64306 16.5477L5.0204 15.6136L3.70953 15.814C3.49116 15.8437 3.26888 15.8079 3.07091 15.711C2.87295 15.6141 2.70823 15.4606 2.59769 15.27L2.15321 14.4912C2.03952 14.2975 1.98716 14.0739 2.00303 13.8498C2.01889 13.6258 2.10225 13.4118 2.24211 13.236L3.05277 12.2011V10.3343L2.21955 9.29945C2.07969 9.1237 1.99634 8.90971 1.98047 8.68567C1.9646 8.46162 2.01696 8.23802 2.13066 8.04431L2.57513 7.26681C2.68549 7.07591 2.85013 6.92214 3.04811 6.82504C3.24609 6.72794 3.46847 6.6919 3.68698 6.72151L4.99784 6.92052L6.64306 5.98779ZM6.38831 11.2684C6.38107 11.5649 6.43321 11.8599 6.54167 12.1359C6.65014 12.412 6.81272 12.6635 7.01987 12.8758C7.22701 13.088 7.47453 13.2567 7.74784 13.3719C8.02116 13.4871 8.31475 13.5464 8.61134 13.5464C8.90793 13.5464 9.20153 13.4871 9.47484 13.3719C9.74816 13.2567 9.99567 13.088 10.2028 12.8758C10.41 12.6635 10.5725 12.412 10.681 12.1359C10.7895 11.8599 10.8416 11.5649 10.8344 11.2684C10.8202 10.6882 10.5798 10.1366 10.1644 9.73124C9.74906 9.32591 9.1917 9.09902 8.61134 9.09902C8.03099 9.09902 7.47363 9.32591 7.05828 9.73124C6.64292 10.1366 6.40249 10.6882 6.38831 11.2684Z" fill="#E1F296"/>
<path d="M9.06708 4.04272H8.15558C7.93151 4.04318 7.71281 4.11132 7.52813 4.23822C7.34346 4.36513 7.20144 4.54487 7.12069 4.75388L6.64305 5.98779L4.99783 6.92185L3.68697 6.72151C3.46859 6.69177 3.24631 6.72761 3.04835 6.82447C2.85038 6.92133 2.68567 7.07483 2.57512 7.26549L2.13065 8.04431C2.01666 8.23816 1.96414 8.46202 1.98001 8.68635C1.99588 8.91067 2.0794 9.1249 2.21954 9.30078L3.05276 10.3343V12.2011L2.2421 13.236C2.10224 13.4118 2.01888 13.6258 2.00302 13.8498C1.98715 14.0739 2.03951 14.2975 2.1532 14.4912L2.59768 15.27C2.70809 15.4608 2.87278 15.6144 3.07078 15.7112C3.26878 15.8081 3.49113 15.8439 3.70952 15.814L5.02039 15.6149L6.64305 16.5477L7.12069 17.7816C7.20144 17.9906 7.34346 18.1703 7.52813 18.2972C7.71281 18.4242 7.93151 18.4923 8.15558 18.4927H9.08964C9.31348 18.492 9.5319 18.4238 9.71631 18.2969C9.90072 18.17 10.0425 17.9904 10.1232 17.7816L10.6008 16.5477L12.2235 15.6136L13.5357 15.814C13.7541 15.8437 13.9764 15.8079 14.1743 15.711C14.3723 15.6141 14.537 15.4606 14.6475 15.27L15.092 14.4912C15.2057 14.2975 15.2581 14.0739 15.2422 13.8498C15.2263 13.6258 15.143 13.4118 15.0031 13.236L14.1686 12.2011V10.9977M6.3883 11.2684C6.38106 11.5649 6.4332 11.8599 6.54166 12.1359C6.65013 12.412 6.81271 12.6635 7.01986 12.8758C7.227 13.088 7.47452 13.2567 7.74783 13.3719C8.02115 13.4871 8.31474 13.5464 8.61133 13.5464C8.90792 13.5464 9.20152 13.4871 9.47483 13.3719C9.74815 13.2567 9.99566 13.088 10.2028 12.8758C10.41 12.6635 10.5725 12.412 10.681 12.1359C10.7895 11.8599 10.8416 11.5649 10.8344 11.2684C10.8202 10.6882 10.5798 10.1366 10.1644 9.73124C9.74905 9.32591 9.19169 9.09902 8.61133 9.09902C8.03098 9.09902 7.47362 9.32591 7.05827 9.73124C6.64291 10.1366 6.40248 10.6882 6.3883 11.2684Z" stroke="#016553" stroke-width="1.71" stroke-linecap="round" stroke-linejoin="round"/>
<path d="M11.9595 5.49296C11.5535 5.42264 11.5535 4.83753 11.9595 4.76588C12.6813 4.6408 13.3494 4.30354 13.8788 3.79714C14.4081 3.29073 14.7746 2.63813 14.9315 1.92258L14.9553 1.8098C15.0442 1.40778 15.6174 1.40513 15.709 1.80715L15.7395 1.93717C15.902 2.6492 16.2714 3.29732 16.8011 3.80012C17.3308 4.30292 17.9973 4.63798 18.7168 4.76323C19.1268 4.8362 19.1268 5.42396 18.7168 5.49428C17.9971 5.61962 17.3305 5.95488 16.8008 6.45793C16.271 6.96099 15.9018 7.60939 15.7395 8.32166L15.709 8.45302C15.6174 8.85371 15.0442 8.85105 14.9553 8.44904L14.9315 8.33759C14.775 7.62215 14.409 6.96952 13.8802 6.4629C13.3513 5.95628 12.6836 5.61861 11.9621 5.49296H11.9595Z" fill="white"/>
<path d="M11.9595 5.49296C11.5535 5.42264 11.5535 4.83753 11.9595 4.76588C12.6813 4.6408 13.3494 4.30354 13.8788 3.79714C14.4081 3.29073 14.7746 2.63813 14.9315 1.92258L14.9553 1.8098C15.0442 1.40778 15.6174 1.40513 15.709 1.80715L15.7395 1.93717C15.902 2.6492 16.2714 3.29732 16.8011 3.80012C17.3308 4.30292 17.9973 4.63799 18.7168 4.76323C19.1268 4.8362 19.1268 5.42396 18.7168 5.49428C17.9971 5.61962 17.3305 5.95488 16.8008 6.45793C16.271 6.96099 15.9018 7.60939 15.7395 8.32166L15.709 8.45302C15.6174 8.85371 15.0442 8.85105 14.9553 8.44904L14.9315 8.33759C14.775 7.62215 14.409 6.96952 13.8802 6.4629C13.3513 5.95628 12.6836 5.61861 11.9621 5.49296H11.9595Z" stroke="#016553" stroke-width="1.71" stroke-linecap="round" stroke-linejoin="round"/>
</svg>
