<svg width="20" height="20" viewBox="0 0 20 20" fill="none" xmlns="http://www.w3.org/2000/svg">
<path fill-rule="evenodd" clip-rule="evenodd" d="M10 0C4.47715 0 0 4.47715 0 10C0 15.5228 4.47715 20 10 20C15.5228 20 20 15.5228 20 10C20 4.47715 15.5228 0 10 0ZM10 2C14.4183 2 18 5.58172 18 10C18 14.4183 14.4183 18 10 18C5.58172 18 2 14.4183 2 10C2 5.58172 5.58172 2 10 2ZM14 10C14 9.44771 13.5523 9 13 9H7L6.88338 9.00673C6.38604 9.06449 6 9.48716 6 10C6 10.5523 6.44772 11 7 11H13L13.1166 10.9933C13.614 10.9355 14 10.5128 14 10Z" fill="#4D5358"/>
</svg>
