<svg width="32" height="33" viewBox="0 0 32 33" fill="none" xmlns="http://www.w3.org/2000/svg">
<g clip-path="url(#clip0_972_1994)">
<path fill-rule="evenodd" clip-rule="evenodd" d="M12.88 24.676C12.9591 24.4542 13.1048 24.2623 13.297 24.1265C13.4893 23.9907 13.7189 23.9176 13.9543 23.9171H18.0457C18.2811 23.9176 18.5107 23.9907 18.703 24.1265C18.8953 24.2623 19.0409 24.4542 19.12 24.676L20.6903 29.06H22.8571C23.3118 29.06 23.7478 29.2406 24.0693 29.5621C24.3908 29.8836 24.5714 30.3196 24.5714 30.7743C24.5714 31.2289 24.3908 31.6649 24.0693 31.9864C23.7478 32.3079 23.3118 32.4885 22.8571 32.4885H9.14286C8.6882 32.4885 8.25217 32.3079 7.93068 31.9864C7.60919 31.6649 7.42857 31.2289 7.42857 30.7743C7.42857 30.3196 7.60919 29.8836 7.93068 29.5621C8.25217 29.2406 8.6882 29.06 9.14286 29.06H11.3097L12.8777 24.676H12.88Z" fill="#5BB98A"/>
<path fill-rule="evenodd" clip-rule="evenodd" d="M3.33029 1.64282C1.49029 1.64282 0 3.13311 0 4.97311V22.3125C0 24.1525 1.49029 25.6428 3.33029 25.6428H28.6697C30.5097 25.6428 32 24.1525 32 22.3125V4.97311C32 3.13311 30.5097 1.64282 28.6697 1.64282H3.33029Z" fill="#E1F296"/>
</g>
<defs>
<clipPath id="clip0_972_1994">
<rect width="32" height="32" fill="white" transform="translate(0 0.5)"/>
</clipPath>
</defs>
</svg>
