<svg width="33" height="33" viewBox="0 0 33 33" fill="none" xmlns="http://www.w3.org/2000/svg">
<path fill-rule="evenodd" clip-rule="evenodd" d="M13.63 24.6761C13.7091 24.4544 13.8547 24.2625 14.047 24.1266C14.2393 23.9908 14.4689 23.9177 14.7043 23.9172H18.7957C19.0311 23.9177 19.2607 23.9908 19.4529 24.1266C19.6452 24.2625 19.7909 24.4544 19.87 24.6761L21.4403 29.0601H23.6071C24.0618 29.0601 24.4978 29.2407 24.8193 29.5622C25.1408 29.8837 25.3214 30.3197 25.3214 30.7744C25.3214 31.229 25.1408 31.6651 24.8193 31.9866C24.4978 32.3081 24.0618 32.4887 23.6071 32.4887H9.89284C9.43819 32.4887 9.00215 32.3081 8.68066 31.9866C8.35917 31.6651 8.17856 31.229 8.17856 30.7744C8.17856 30.3197 8.35917 29.8837 8.68066 29.5622C9.00215 29.2407 9.43819 29.0601 9.89284 29.0601H12.0597L13.6277 24.6761H13.63Z" fill="#016553"/>
<path d="M25.4791 0.879464L27.4129 4.79489C27.4465 4.89606 27.5033 4.98799 27.5787 5.06338C27.654 5.13876 27.746 5.19553 27.8471 5.22918L32.1763 5.85546C32.3001 5.87339 32.4164 5.92575 32.5119 6.00658C32.6074 6.0874 32.6782 6.19344 32.7163 6.31259C32.7545 6.43174 32.7583 6.55921 32.7275 6.68046C32.6967 6.80171 32.6324 6.91185 32.542 6.99832L29.4517 10.0886C29.3785 10.1667 29.3236 10.2602 29.2912 10.3622C29.2587 10.4643 29.2496 10.5723 29.2643 10.6783L30.0186 14.8772C30.0396 14.9999 30.0261 15.126 29.9794 15.2415C29.9327 15.3569 29.8548 15.457 29.7544 15.5306C29.654 15.6042 29.535 15.6484 29.4109 15.6581C29.2868 15.6678 29.1624 15.6428 29.0517 15.5857L25.1843 13.556C25.0902 13.504 24.9844 13.4767 24.8769 13.4767C24.7693 13.4767 24.6635 13.504 24.5694 13.556L20.7043 15.5857C20.5937 15.6437 20.4691 15.6695 20.3445 15.6602C20.22 15.6508 20.1006 15.6067 19.9999 15.5329C19.8992 15.4591 19.8212 15.3585 19.7748 15.2426C19.7284 15.1267 19.7155 15.0001 19.7374 14.8772L20.4803 10.5732C20.4947 10.467 20.4852 10.3588 20.4523 10.2568C20.4195 10.1548 20.3642 10.0614 20.2906 9.98346L17.198 6.89318C17.1201 6.80859 17.0654 6.70533 17.0392 6.5934C17.013 6.48146 17.0161 6.36465 17.0483 6.25429C17.0805 6.14392 17.1407 6.04374 17.223 5.96346C17.3052 5.88317 17.4069 5.8255 17.518 5.79604L21.8449 5.17204C21.9515 5.15298 22.0521 5.10885 22.1383 5.04328C22.2246 4.97771 22.294 4.89257 22.3409 4.79489L24.2746 0.879464C24.3289 0.765754 24.4142 0.669738 24.5208 0.602522C24.6274 0.535305 24.7508 0.499634 24.8769 0.499634C25.0029 0.499634 25.1263 0.535305 25.2329 0.602522C25.3395 0.669738 25.4248 0.765754 25.4791 0.879464Z" fill="#016553"/>
<path fill-rule="evenodd" clip-rule="evenodd" d="M20.7111 1.64294L20.2814 2.51152L17.1089 2.96866C16.4737 3.07566 15.8801 3.35466 15.3923 3.77534C14.9046 4.19602 14.5415 4.74231 14.3424 5.35485C14.1433 5.9674 14.1159 6.62278 14.2631 7.24982C14.4103 7.87685 14.7266 8.45156 15.1774 8.91152L17.47 11.2041L16.9214 14.3881C16.809 15.036 16.8801 15.7025 17.1266 16.3121C17.3732 16.9218 17.7854 17.4503 18.3167 17.8379C18.8479 18.2255 19.477 18.4568 20.1328 18.5055C20.7886 18.5543 21.445 18.4186 22.0277 18.1138L24.8757 16.6212L27.7237 18.1138C28.3074 18.4196 28.9651 18.556 29.6223 18.5075C30.2795 18.4591 30.91 18.2277 31.4426 17.8395C32.0744 17.3773 32.5344 16.7179 32.75 15.9652V22.3127C32.75 24.1527 31.2597 25.6429 29.4197 25.6429H4.08029C3.19704 25.6429 2.34997 25.2921 1.72542 24.6675C1.10087 24.043 0.75 23.1959 0.75 22.3127L0.75 4.97323C0.75 3.13323 2.24029 1.64294 4.08029 1.64294H20.7111Z" fill="#E1F296"/>
</svg>
