<svg width="24" height="25" viewBox="0 0 24 25" fill="none" xmlns="http://www.w3.org/2000/svg">
<g clip-path="url(#clip0_987_10331)">
<path fill-rule="evenodd" clip-rule="evenodd" d="M17.1377 0.877188C17.3177 0.696688 17.5472 0.573753 17.7972 0.524C18.0472 0.474246 18.3063 0.49992 18.5417 0.59776L22.188 2.10976C22.5024 2.2396 22.7526 2.48877 22.8837 2.8027C23.0148 3.11662 23.0161 3.46971 22.8874 3.78462L21.3977 7.4309C21.3015 7.66636 21.1375 7.86797 20.9267 8.01024C20.7158 8.15251 20.4675 8.22903 20.2131 8.23013C19.9588 8.23123 19.7098 8.15686 19.4977 8.01642C19.2857 7.87599 19.12 7.6758 19.0217 7.44119L18.4337 6.03547L3.62571 12.3629C3.47038 12.4293 3.30348 12.4645 3.13456 12.4664C2.96563 12.4683 2.79798 12.4369 2.64118 12.374C2.48439 12.3112 2.34151 12.218 2.22071 12.0999C2.09991 11.9818 2.00355 11.8411 1.93714 11.6858C1.87073 11.5304 1.83556 11.3635 1.83365 11.1946C1.83174 11.0257 1.86312 10.858 1.926 10.7012C1.98888 10.5444 2.08202 10.4016 2.20012 10.2808C2.31821 10.16 2.45895 10.0636 2.61428 9.99719L17.4411 3.6629L16.8634 2.2829C16.7646 2.04781 16.7379 1.78863 16.7867 1.53832C16.8356 1.28801 16.9577 1.05788 17.1377 0.877188Z" fill="#016553"/>
<path fill-rule="evenodd" clip-rule="evenodd" d="M21.8571 9.89429C22.3118 9.89429 22.7478 10.0749 23.0693 10.3964C23.3908 10.7179 23.5714 11.1539 23.5714 11.6086V23.6086C23.5714 23.8359 23.4811 24.0539 23.3204 24.2147C23.1596 24.3754 22.9416 24.4657 22.7143 24.4657H18.4286C18.2012 24.4657 17.9832 24.3754 17.8225 24.2147C17.6617 24.0539 17.5714 23.8359 17.5714 23.6086V11.6086C17.5714 11.1539 17.752 10.7179 18.0735 10.3964C18.395 10.0749 18.8311 9.89429 19.2857 9.89429H21.8571ZM13.2857 12.4657C13.7404 12.4657 14.1764 12.6463 14.4979 12.9678C14.8194 13.2893 15 13.7253 15 14.18V23.6086C15 23.8359 14.9097 24.0539 14.7489 24.2147C14.5882 24.3754 14.3702 24.4657 14.1429 24.4657H9.85714C9.74458 24.4657 9.63312 24.4435 9.52913 24.4005C9.42513 24.3574 9.33064 24.2943 9.25105 24.2147C9.17146 24.1351 9.10832 24.0406 9.06524 23.9366C9.02217 23.8326 9 23.7211 9 23.6086V14.18C9 13.7253 9.18061 13.2893 9.5021 12.9678C9.82359 12.6463 10.2596 12.4657 10.7143 12.4657H13.2857ZM5.92628 15.536C5.60487 15.2145 5.1689 15.0338 4.71428 15.0337H2.14286C1.6882 15.0337 1.25216 15.2143 0.930672 15.5358C0.609181 15.8573 0.42857 16.2933 0.42857 16.748V23.6051C0.42857 23.8325 0.518876 24.0505 0.679621 24.2112C0.840367 24.372 1.05838 24.4623 1.28571 24.4623H5.57143C5.79876 24.4623 6.01677 24.372 6.17752 24.2112C6.33826 24.0505 6.42857 23.8325 6.42857 23.6051V16.748C6.42847 16.2934 6.2478 15.8574 5.92628 15.536Z" fill="#E1F296"/>
</g>
<defs>
<clipPath id="clip0_987_10331">
<rect width="24" height="24" fill="white" transform="translate(0 0.5)"/>
</clipPath>
</defs>
</svg>
