<svg width="33" height="33" viewBox="0 0 33 33" fill="none" xmlns="http://www.w3.org/2000/svg">
<g clip-path="url(#clip0_972_2008)">
<path fill-rule="evenodd" clip-rule="evenodd" d="M13.38 24.676C13.4591 24.4542 13.6048 24.2623 13.7971 24.1265C13.9893 23.9907 14.2189 23.9176 14.4543 23.9171H18.5457C18.7812 23.9176 19.0107 23.9907 19.203 24.1265C19.3953 24.2623 19.5409 24.4542 19.62 24.676L21.1903 29.06H23.3572C23.8118 29.06 24.2479 29.2406 24.5693 29.5621C24.8908 29.8836 25.0714 30.3196 25.0714 30.7743C25.0714 31.2289 24.8908 31.6649 24.5693 31.9864C24.2479 32.3079 23.8118 32.4885 23.3572 32.4885H9.64287C9.18822 32.4885 8.75218 32.3079 8.43069 31.9864C8.1092 31.6649 7.92859 31.2289 7.92859 30.7743C7.92859 30.3196 8.1092 29.8836 8.43069 29.5621C8.75218 29.2406 9.18822 29.06 9.64287 29.06H11.8097L13.3777 24.676H13.38Z" fill="#5BB98A"/>
<path fill-rule="evenodd" clip-rule="evenodd" d="M31.924 0.934249C32.2635 1.23602 32.4693 1.66019 32.4963 2.1136C32.5233 2.56701 32.3693 3.01261 32.068 3.35253L22.9251 13.6382C22.6395 13.96 22.2433 14.1626 21.8152 14.2058C21.3871 14.249 20.9584 14.1296 20.6143 13.8714L16.0428 10.4428C15.6791 10.17 15.4387 9.76392 15.3744 9.31383C15.3101 8.86374 15.4272 8.40655 15.7 8.04282C15.9728 7.67909 16.3789 7.43863 16.829 7.37434C17.2791 7.31004 17.7363 7.42717 18.1 7.69996L21.4097 10.1822L29.5057 1.07596C29.8075 0.736483 30.2316 0.530643 30.685 0.503644C31.1385 0.476645 31.5841 0.630694 31.924 0.931963V0.934249Z" fill="#5BB98A"/>
<path fill-rule="evenodd" clip-rule="evenodd" d="M25.1766 1.64282H3.828C1.99257 1.64282 0.5 3.13311 0.5 4.97311V22.3125C0.5 24.1525 1.99029 25.6428 3.83029 25.6428H29.1697C31.0097 25.6428 32.5 24.1525 32.5 22.3125V7.16739L25.06 15.5377C24.2981 16.3948 23.2418 16.9342 22.1008 17.0489C20.9598 17.1636 19.8173 16.8453 18.9 16.1571L14.3286 12.7285C13.8483 12.3683 13.4437 11.9171 13.1378 11.4005C12.832 10.8839 12.6308 10.3122 12.5459 9.71789C12.461 9.1236 12.494 8.5184 12.643 7.93685C12.792 7.35531 13.0541 6.8088 13.4143 6.32854C13.7745 5.84827 14.2257 5.44366 14.7423 5.1378C15.2589 4.83193 15.8306 4.63081 16.4249 4.54591C17.0192 4.46101 17.6244 4.494 18.206 4.64299C18.7875 4.79198 19.334 5.05405 19.8143 5.41425L21.0211 6.31939L25.1766 1.64282Z" fill="#016553"/>
</g>
<defs>
<clipPath id="clip0_972_2008">
<rect width="32" height="32" fill="white" transform="translate(0.5 0.5)"/>
</clipPath>
</defs>
</svg>
