<svg width="33" height="33" viewBox="0 0 33 33" fill="none" xmlns="http://www.w3.org/2000/svg">
<g clip-path="url(#clip0_972_2003)">
<path fill-rule="evenodd" clip-rule="evenodd" d="M13.13 24.676C13.2091 24.4542 13.3548 24.2623 13.5471 24.1265C13.7393 23.9907 13.9689 23.9176 14.2043 23.9171H18.2957C18.5312 23.9176 18.7607 23.9907 18.953 24.1265C19.1453 24.2623 19.2909 24.4542 19.37 24.676L20.9403 29.06H23.1072C23.5618 29.06 23.9979 29.2406 24.3193 29.5621C24.6408 29.8836 24.8214 30.3196 24.8214 30.7743C24.8214 31.2289 24.6408 31.6649 24.3193 31.9864C23.9979 32.3079 23.5618 32.4885 23.1072 32.4885H9.39287C8.93822 32.4885 8.50218 32.3079 8.18069 31.9864C7.8592 31.6649 7.67859 31.2289 7.67859 30.7743C7.67859 30.3196 7.8592 29.8836 8.18069 29.5621C8.50218 29.2406 8.93822 29.06 9.39287 29.06H11.5597L13.1277 24.676H13.13Z" fill="#5BB98A"/>
<path fill-rule="evenodd" clip-rule="evenodd" d="M27.2511 3.96515C26.9684 3.90905 26.6767 3.91635 26.3971 3.98653C26.1175 4.0567 25.8569 4.188 25.6342 4.37097C25.4114 4.55394 25.232 4.78403 25.1088 5.04468C24.9857 5.30532 24.9219 5.59003 24.922 5.8783C24.922 6.33295 24.7414 6.76899 24.4199 7.09048C24.0984 7.41197 23.6624 7.59258 23.2077 7.59258C22.753 7.59258 22.317 7.41197 21.9955 7.09048C21.674 6.76899 21.4934 6.33295 21.4934 5.8783C21.4933 4.88873 21.7662 3.91832 22.2821 3.07387C22.798 2.22941 23.5368 1.54365 24.4173 1.09207C25.2978 0.640485 26.2859 0.440582 27.2727 0.514361C28.2595 0.58814 29.2068 0.932742 30.0104 1.51024C30.814 2.08774 31.4426 2.87574 31.8272 3.78752C32.2118 4.69929 32.3374 5.6995 32.1901 6.67804C32.0428 7.65659 31.6285 8.57553 30.9926 9.33374C30.3567 10.092 29.5239 10.66 28.586 10.9754V11.3732C28.586 11.5983 28.5416 11.8212 28.4555 12.0292C28.3693 12.2372 28.2431 12.4262 28.0839 12.5853C27.9247 12.7445 27.7357 12.8708 27.5277 12.9569C27.3197 13.0431 27.0968 13.0874 26.8717 13.0874C26.6466 13.0874 26.4237 13.0431 26.2157 12.9569C26.0077 12.8708 25.8187 12.7445 25.6595 12.5853C25.5003 12.4262 25.3741 12.2372 25.2879 12.0292C25.2017 11.8212 25.1574 11.5983 25.1574 11.3732V9.5423C25.1574 9.08764 25.338 8.65161 25.6595 8.33011C25.981 8.00862 26.417 7.82801 26.8717 7.82801C27.3564 7.8289 27.8241 7.64921 28.1835 7.32397C28.5429 6.99874 28.7683 6.55129 28.8157 6.06889C28.863 5.5865 28.729 5.10375 28.4398 4.7148C28.1505 4.32585 27.7267 4.05859 27.2511 3.96515ZM26.8717 18.5252C26.3413 18.5252 25.8326 18.3144 25.4575 17.9394C25.0824 17.5643 24.8717 17.0556 24.8717 16.5252C24.8717 15.9947 25.0824 15.486 25.4575 15.1109C25.8326 14.7359 26.3413 14.5252 26.8717 14.5252C27.4021 14.5252 27.9108 14.7359 28.2859 15.1109C28.661 15.486 28.8717 15.9947 28.8717 16.5252C28.8717 17.0556 28.661 17.5643 28.2859 17.9394C27.9108 18.3144 27.4021 18.5252 26.8717 18.5252Z" fill="#5BB98A"/>
<path fill-rule="evenodd" clip-rule="evenodd" d="M22.3003 10.3605V11.3731C22.3003 12.2188 22.5289 13.0097 22.9289 13.6885C22.4069 14.4141 22.0952 15.2697 22.0282 16.161C21.9612 17.0523 22.1415 17.9448 22.5492 18.7403C22.9568 19.5357 23.5761 20.2033 24.3387 20.6694C25.1014 21.1355 25.9779 21.3822 26.8717 21.3822C27.7655 21.3822 28.642 21.1355 29.4047 20.6694C30.1674 20.2033 30.7866 19.5357 31.1943 18.7403C31.6019 17.9448 31.7822 17.0523 31.7152 16.161C31.6482 15.2697 31.3366 14.4141 30.8146 13.6885C30.9633 13.4359 31.0874 13.1696 31.1849 12.8931C31.56 12.6627 31.9161 12.4029 32.25 12.116V22.3125C32.25 24.1525 30.7597 25.6428 28.9197 25.6428H3.58029C3.14295 25.6428 2.70989 25.5567 2.30584 25.3893C1.90179 25.222 1.53466 24.9767 1.22542 24.6674C0.916173 24.3582 0.670865 23.991 0.503503 23.587C0.33614 23.1829 0.25 22.7499 0.25 22.3125L0.25 4.97311C0.25 3.13311 1.74029 1.64282 3.58029 1.64282H19.8089C19.0416 2.92235 18.6363 4.38629 18.6363 5.87825C18.6364 6.93307 19.0013 7.95539 19.6691 8.7719C20.3369 9.58842 21.2665 10.1489 22.3003 10.3583V10.3605Z" fill="#016553"/>
</g>
<defs>
<clipPath id="clip0_972_2003">
<rect width="32" height="32" fill="white" transform="translate(0.25 0.5)"/>
</clipPath>
</defs>
</svg>
