<svg width="21" height="20" viewBox="0 0 21 20" fill="none" xmlns="http://www.w3.org/2000/svg">
<path d="M7.89949 8.69974C9.69476 8.69974 11.1501 7.24438 11.1501 5.44911C11.1501 3.65384 9.69476 2.19849 7.89949 2.19849C6.10422 2.19849 4.64886 3.65384 4.64886 5.44911C4.64886 7.24438 6.10422 8.69974 7.89949 8.69974Z" fill="#E1F296"/>
<path d="M2.04837 17.8015H13.7506V17.0965C13.7403 16.1054 13.4789 15.1332 12.9909 14.2705C12.5029 13.4079 11.8042 12.683 10.9603 12.1635C10.1162 11.6441 9.1541 11.347 8.16419 11.3002C8.07583 11.2961 7.98759 11.2938 7.8995 11.2937C7.8114 11.2938 7.72317 11.2961 7.63493 11.3002C6.64489 11.347 5.68297 11.6441 4.83887 12.1635C3.99477 12.683 3.29608 13.4079 2.80809 14.2705C2.3201 15.1332 2.05872 16.1054 2.04837 17.0965V17.8015Z" fill="#E1F296"/>
<path d="M7.89949 8.69974C9.69476 8.69974 11.1501 7.24438 11.1501 5.44911C11.1501 3.65384 9.69476 2.19849 7.89949 2.19849C6.10422 2.19849 4.64886 3.65384 4.64886 5.44911C4.64886 7.24438 6.10422 8.69974 7.89949 8.69974Z" stroke="#016553" stroke-width="1.71" stroke-linecap="round" stroke-linejoin="round"/>
<path d="M2.04837 17.8015H13.7506V17.0965C13.7403 16.1054 13.4789 15.1332 12.9909 14.2705C12.5029 13.4079 11.8042 12.683 10.9603 12.1635C10.1162 11.6441 9.1541 11.347 8.16419 11.3002C8.07583 11.2961 7.98759 11.2938 7.8995 11.2937C7.8114 11.2938 7.72317 11.2961 7.63493 11.3002C6.64489 11.347 5.68297 11.6441 4.83887 12.1635C3.99477 12.683 3.29608 13.4079 2.80809 14.2705C2.3201 15.1332 2.05872 16.1054 2.04837 17.0965V17.8015Z" stroke="#016553" stroke-width="1.71" stroke-linecap="round" stroke-linejoin="round"/>
<path d="M13.1005 8.69974C14.8958 8.69974 16.3511 7.24438 16.3511 5.44911C16.3511 3.65384 14.8958 2.19849 13.1005 2.19849" stroke="#016553" stroke-width="1.71" stroke-linecap="round" stroke-linejoin="round"/>
<path d="M16.3511 17.8015H18.9516V17.0966C18.9413 16.1056 18.6799 15.1332 18.1919 14.2705C17.7039 13.408 17.0052 12.683 16.1611 12.1636C15.6156 11.8278 15.0206 11.585 14.4008 11.4426" stroke="#016553" stroke-width="1.71" stroke-linecap="round" stroke-linejoin="round"/>
</svg>
